<svg width="560" height="560" viewBox="0 0 560 560" fill="none" xmlns="http://www.w3.org/2000/svg">
<rect width="560" height="560" rx="280" fill="#50FF98"/>
<g clip-path="url(#clip0_548_49)">
<path d="M420.872 93.3468C386.561 66.7298 345.616 50.3921 302.657 46.1771C259.699 41.9622 216.437 50.0377 177.752 69.4926C139.068 88.9474 106.501 119.007 83.7263 156.28C60.9517 193.553 48.8759 236.556 48.8613 280.436C48.8613 410.432 152.526 515.831 280.385 515.831C408.243 515.831 511.908 410.432 511.908 280.436C511.946 244.226 503.748 208.499 487.956 176.044C472.163 143.589 449.204 115.286 420.872 93.3468V93.3468ZM490.277 296.872C489.942 301.4 489.467 305.888 488.851 310.335C488.609 312.123 488.348 313.89 488.047 315.657C487.735 317.557 487.404 319.457 487.042 321.337C486.506 324.163 485.913 326.969 485.264 329.754C476.338 368.118 457.139 403.219 429.794 431.169C424.697 436.421 419.332 441.396 413.719 446.073V446.073C410.906 448.422 408.036 450.69 405.109 452.876C402.182 455.062 399.194 457.18 396.147 459.23L393.856 460.742C359.978 482.822 320.566 494.525 280.325 494.451C164.02 494.451 69.729 398.583 69.729 280.333C69.729 162.084 164.02 66.2156 280.325 66.2156C281.842 66.2156 283.339 66.2156 284.856 66.2667C285.609 66.2667 286.363 66.2667 287.106 66.328L289.337 66.4097C290.536 66.4642 291.721 66.5255 292.893 66.5936L294.853 66.7162C297.183 66.8796 299.504 67.0805 301.815 67.3189L303.222 67.4721C303.945 67.5436 304.658 67.6253 305.372 67.7172C306.085 67.8092 306.678 67.8705 307.321 67.9624C308.537 68.1156 309.752 68.2893 310.958 68.4629C314.052 68.926 317.123 69.4538 320.171 70.0463C320.874 70.1791 321.588 70.3221 322.291 70.4753L323.426 70.7102C324.096 70.8396 324.766 70.9826 325.436 71.1393L327.445 71.5887L330.007 72.2016C330.459 72.3038 330.921 72.4162 331.374 72.5387C332.609 72.8452 333.845 73.1721 335.071 73.5603C337.75 74.2821 340.392 75.0619 342.998 75.8995C343.631 76.0936 344.274 76.2979 344.907 76.5124L346.816 77.1457C347.449 77.35 348.082 77.5748 348.705 77.7893C349.328 78.0038 349.961 78.2285 350.593 78.4635C351.226 78.6984 351.849 78.9129 352.472 79.1479C353.095 79.3828 353.718 79.6076 354.341 79.8527C354.964 80.0979 355.577 80.3226 356.2 80.5678C358.055 81.2896 359.9 82.0455 361.736 82.8355C365.6 84.4835 369.408 86.244 373.159 88.1167C374.114 88.5866 375.058 89.0769 376.002 89.5672C376.625 89.8839 377.238 90.2108 377.851 90.5377L379.599 91.4775L381.337 92.4377C381.91 92.7543 382.483 93.071 383.055 93.4081C383.628 93.7452 384.201 94.0517 384.773 94.4296L386.632 95.5226C387.717 96.1628 388.792 96.8165 389.857 97.4839C393.776 99.9151 397.607 102.469 401.351 105.145C402.215 105.758 403.079 106.391 403.933 107.025C404.375 107.352 404.827 107.679 405.259 108.046C406.174 108.731 407.068 109.415 407.972 110.089C408.876 110.763 409.559 111.315 410.333 111.948C411.539 112.909 412.734 113.882 413.92 114.87C414.925 115.677 415.849 116.494 416.803 117.332C417.758 118.169 418.692 118.966 419.616 119.804C420.708 120.784 421.793 121.779 422.872 122.787C423.766 123.614 424.65 124.452 425.524 125.31C426.398 126.168 427.403 127.138 428.337 128.078C429.272 129.018 430.106 129.866 430.97 130.765L431.09 130.897C432.004 131.847 432.909 132.808 433.793 133.768L433.883 133.86C435.641 135.76 437.37 137.701 439.047 139.672C439.911 140.694 440.765 141.715 441.599 142.686C442.433 143.656 443.277 144.729 444.091 145.75C445.739 147.793 447.343 149.887 448.904 152.032C452.835 157.344 456.519 162.843 459.955 168.53C468.179 182.141 474.872 196.649 479.909 211.78C480.331 213.037 480.743 214.303 481.124 215.57C481.506 216.837 481.918 218.134 482.29 219.421C482.491 220.065 482.672 220.718 482.852 221.372L483.395 223.323L484.118 226.061C484.788 228.785 485.441 231.55 486.078 234.355C486.466 236.181 486.841 238.019 487.203 239.872C487.198 239.895 487.198 239.92 487.203 239.943C487.544 241.802 487.876 243.672 488.208 245.551C488.208 245.633 488.208 245.715 488.208 245.796C488.348 246.675 488.479 247.553 488.609 248.432C488.891 250.284 489.142 252.14 489.363 253.999C489.483 255.021 489.594 256.042 489.705 257.064C489.815 258.085 489.905 258.984 489.996 259.954C490.086 260.925 490.167 261.885 490.247 262.855C490.327 263.826 490.398 264.715 490.448 265.654C490.498 266.594 490.589 267.789 490.649 268.862C490.749 270.752 490.82 272.642 490.87 274.542C490.92 276.442 490.95 278.495 490.95 280.476C490.95 284.174 490.86 287.842 490.679 291.499C490.528 293.266 490.458 295.074 490.277 296.872Z" fill="white"/>
<path d="M421.133 314.717C421.133 386.897 358.269 445.245 280.475 445.245C202.861 445.245 139.816 386.897 139.816 314.717V170.685C164.586 144.177 196.098 125.167 230.852 115.769V210.707H231.023V317.373H231.244C231.253 318.884 231.432 320.388 231.777 321.857C231.99 323.28 232.285 324.689 232.661 326.076C232.972 327.532 233.444 328.947 234.067 330.295C234.523 331.697 235.116 333.048 235.836 334.33C237.656 337.736 239.88 340.902 242.457 343.759C243.522 344.923 244.577 346.006 245.632 347.078C249.269 350.343 253.325 353.092 257.688 355.25C259.05 355.996 260.468 356.631 261.928 357.151C264.204 357.992 266.533 358.675 268.9 359.194C269.477 359.373 270.069 359.496 270.669 359.561C271.761 359.894 272.887 360.1 274.024 360.174C276.144 360.266 278.254 360.46 280.555 360.46C282.494 360.46 284.574 360.266 286.583 360.174C287.939 360.097 289.284 359.892 290.602 359.561C292.009 359.275 293.425 359.01 294.932 358.54C296.385 358.21 297.802 357.735 299.162 357.12C300.622 356.601 302.04 355.965 303.402 355.22C304.821 354.717 306.139 353.955 307.29 352.973C308.601 352.328 309.844 351.547 310.997 350.644C312.331 349.902 313.527 348.931 314.534 347.773C316.761 345.903 318.782 343.793 320.562 341.481C321.48 340.338 322.336 339.144 323.124 337.905C324.011 336.823 324.727 335.606 325.244 334.299C325.964 333.018 326.556 331.666 327.012 330.264C327.636 328.917 328.108 327.501 328.419 326.046C328.795 324.658 329.09 323.249 329.303 321.827C329.597 320.362 329.732 318.868 329.705 317.373H329.886V115.544C364.557 124.719 396.062 143.455 420.922 169.684V309.63C421.133 311.305 421.133 313.185 421.133 314.717Z" fill="white"/>
</g>
<defs>
<clipPath id="clip0_548_49">
<rect x="48.8613" y="44.958" width="463.047" height="470.873" rx="70" fill="white"/>
</clipPath>
</defs>
</svg>
